<svg xmlns="http://www.w3.org/2000/svg" viewBox="48 48 127.6 127.6" width="512" height="512">
  <g>
    <!-- Red Circle Background -->
    <path d="m 53.496094,121.64453 c 1.339844,8 4.242187,15.35547 8.328125,21.80078 15.265625,-4.25 28.6875,-12.29687 33.460937,-30.23047 C 100.53516,93.476563 94.542969,72.792969 80.207031,61.832031 60.6875,74.191406 49.429688,97.433594 53.496094,121.64453 M 170.16797,102.04297 c 5.41406,32.21484 -16.3125,62.72265 -48.53516,68.13281 -5.41797,0.91406 -10.79297,1.05469 -16,0.50781 -16.808591,-1.75781 -31.957029,-10.6914 -41.703122,-24.12109 l 95.781252,-27.46094 c 1.375,-0.39843 1.01953,-1.71875 -0.11719,-1.64062 l -40.15625,2.80469 c 5.65625,-5.46094 9.96094,-12.16016 9.44141,-21.42188 -1.0586,-15.003906 -16.32813,-29.644531 -44.726566,-39.277344 5.457031,-2.894531 11.449219,-4.984375 17.874996,-6.0625 5.42188,-0.90625 10.79688,-1.054687 16,-0.507812 25.77735,2.699219 47.63672,22.238281 52.14063,49.046876" fill="#E30A17"/>
    <!-- White Bird Emblem -->
    <path d="M 95.28125,113.21484 C 100.53516,93.476563 94.542969,72.792969 80.210938,61.832031 60.6875,74.191406 49.429688,97.429688 53.496094,121.64063 c 1.339844,8.0039 4.242187,15.35937 8.328125,21.80468 15.265625,-4.25 28.6875,-12.29687 33.457031,-30.23047 m 26.35156,56.96094 c 32.22266,-5.41016 53.94922,-35.91797 48.53516,-68.1289 -4.50391,-26.812505 -26.36328,-46.351567 -52.14063,-49.050786 -5.20312,-0.546875 -10.57812,-0.398438 -16,0.507812 -6.425777,1.078125 -12.417965,3.167969 -17.874996,6.0625 28.398436,9.632813 43.667966,24.273438 44.726566,39.277344 0.51953,9.26172 -3.78516,15.96094 -9.44141,21.42188 l 40.15625,-2.80469 c 1.13672,-0.0781 1.49219,1.24609 0.11719,1.64062 L 63.929688,146.5625 c 9.75,13.42969 24.890625,22.36328 41.707032,24.12109 5.20312,0.54688 10.57812,0.40625 15.99609,-0.50781 M 118.39844,49.46875 c 31.54297,3.285156 56.14453,29.941406 56.15625,62.35156 0.0117,34.63281 -28.0586,62.72266 -62.69531,62.73438 C 77.222656,174.56641 49.136719,146.5 49.125,111.86328 49.113281,77.226563 77.179688,49.136719 111.81641,49.125 c 2.21875,0 4.41797,0.121094 6.58203,0.34375" fill="#ffffff"/>
  </g>
</svg>